Coordinates
version=1
nRows=16
nColumns=40
inDegrees=yes

Units are S.I. units (second, meters, Newtons, ...)
If the header above contains a line with 'inDegrees', this indicates whether rotational values are in degrees (yes) or radians (no).

endheader
time	pelvis_tilt	pelvis_list	pelvis_rotation	pelvis_tx	pelvis_ty	pelvis_tz	hip_flexion_r	hip_adduction_r	hip_rotation_r	knee_angle_r	knee_angle_r_beta	ankle_angle_r	subtalar_angle_r	mtp_angle_r	hip_flexion_l	hip_adduction_l	hip_rotation_l	knee_angle_l	knee_angle_l_beta	ankle_angle_l	subtalar_angle_l	mtp_angle_l	lumbar_extension	lumbar_bending	lumbar_rotation	arm_flex_r	arm_add_r	arm_rot_r	elbow_flex_r	pro_sup_r	wrist_flex_r	wrist_dev_r	arm_flex_l	arm_add_l	arm_rot_l	elbow_flex_l	pro_sup_l	wrist_flex_l	wrist_dev_l
      0.00000000	    -26.48340721	     -4.62562047	      8.14707129	     -0.30331507	      1.19502143	      0.04261282	     57.50154971	     -9.99355866	    -12.69178263	     32.45767689	      0.56649333	    -18.79395800	    -14.02461031	      0.00000000	     85.42698014	      1.46538554	     11.65028778	    103.11277921	      1.79965750	      0.38173841	    -16.70531401	      0.00000000	    -51.89441997	     14.91146901	     -1.79059834	     89.90524170	     -5.53375673	     12.16220212	     43.37377962	     86.43284629	      0.00000000	      0.00000000	     89.92344334	    -20.13002871	     36.10446962	     41.84226940	     65.64729057	      0.00000000	      0.00000000
      0.00833333	    -26.55940887	     -4.11880713	      8.25101633	     -0.30315206	      1.19494303	      0.04190113	     55.97337260	    -10.20350678	    -13.10434761	     30.62639513	      0.53453143	    -20.26845303	    -13.57942605	      0.00000000	     86.87792328	      1.88340524	     10.99451902	    104.45929065	      1.82315856	      1.69440396	    -16.85088093	      0.00000000	    -51.74071861	     14.53207120	     -2.34693015	     89.90431877	     -5.53670698	     12.18520486	     43.06482999	     86.51884708	      0.00000000	      0.00000000	     89.92495193	    -20.19076735	     36.28620498	     41.93458590	     65.67368177	      0.00000000	      0.00000000
      0.01666667	    -26.61210796	     -3.69489748	      8.31231253	     -0.30293539	      1.19499849	      0.04116022	     54.58364878	    -10.40614052	    -13.67954053	     29.15194672	      0.50879745	    -21.97788877	    -13.09256336	      0.00000000	     88.23112630	      2.20433439	     10.38240107	    105.61249157	      1.84328571	      3.19333810	    -16.77610000	      0.00000000	    -51.65730319	     14.20365606	     -2.76772686	     89.90279166	     -5.56094096	     12.13851131	     42.93764771	     86.52982364	      0.00000000	      0.00000000	     89.92576258	    -20.29325896	     36.47617809	     42.16528013	     65.68810399	      0.00000000	      0.00000000
      0.02500000	    -26.53705184	     -3.49414679	      8.36527106	     -0.30256902	      1.19514471	      0.04065222	     53.19821005	    -10.48370412	    -14.59512170	     28.10774388	      0.49057268	    -23.52525739	    -12.79957415	      0.00000000	     89.42188837	      2.33224315	     10.00629330	    106.55550804	      1.85974445	      4.99716706	    -15.74690260	      0.00000000	    -51.73396255	     14.01617720	     -3.01058464	     89.90013013	     -5.56619719	     12.06230587	     42.90055963	     86.48498110	      0.00000000	      0.00000000	     89.92668542	    -20.53170252	     36.86696373	     42.66623396	     65.56638392	      0.00000000	      0.00000000
      0.03333333	    -26.68709224	     -3.21232601	      8.34587790	     -0.30245798	      1.19516622	      0.04005053	     52.18559924	    -10.54386618	    -14.99995396	     27.36959693	      0.47768958	    -24.09780854	    -12.69107770	      0.00000000	     90.74929513	      2.59513239	      9.58741231	    107.22360006	      1.87140486	      6.39197932	    -15.76039285	      0.00000000	    -51.56876985	     13.73764544	     -3.25264745	     89.89806747	     -5.61582961	     12.00572073	     42.72100679	     86.49369717	      0.00000000	      0.00000000	     89.92772738	    -20.54773101	     37.02683882	     42.80086524	     65.53952059	      0.00000000	      0.00000000
      0.04166667	    -26.81724789	     -3.03494721	      8.30562836	     -0.30237732	      1.19524499	      0.03953453	     51.31720838	    -10.56530932	    -15.43791562	     26.99393283	      0.47113301	    -24.83591561	    -12.49289814	      0.00000000	     91.93465637	      2.63608634	      9.17711814	    107.57043330	      1.87745824	      8.14084073	    -15.28579280	      0.00000000	    -51.45639043	     13.53284701	     -3.42361585	     89.89665769	     -5.67048762	     12.00172840	     42.71060271	     86.51310028	      0.00000000	      0.00000000	     89.92857990	    -20.65624366	     37.23923027	     43.05868809	     65.48078175	      0.00000000	      0.00000000
      0.05000000	    -26.92345089	     -2.98937005	      8.25957602	     -0.30224913	      1.19527699	      0.03923484	     50.58264766	    -10.51715493	    -15.89883051	     27.03968030	      0.47193145	    -24.93902698	    -12.30137905	      0.00000000	     93.00220706	      2.55035521	      8.94423867	    107.67822043	      1.87933948	     10.13664123	    -13.45973551	      0.00000000	    -51.36448630	     13.41866260	     -3.48936717	     89.89516836	     -5.68961838	     11.99528397	     42.64235085	     86.41713041	      0.00000000	      0.00000000	     89.92928458	    -20.79963066	     37.54319788	     43.31929164	     65.07248179	      0.00000000	      0.00000000
      0.05833333	    -27.05224559	     -2.92909697	      8.21834156	     -0.30221066	      1.19556678	      0.03881758	     49.97751501	    -10.47915184	    -16.18020534	     27.30227700	      0.47651463	    -24.82289631	    -12.43897800	      0.00000000	     93.92919641	      2.52776632	      8.60893049	    107.38562190	      1.87423267	     11.21488742	    -13.61596544	      0.00000000	    -51.27865763	     13.30707741	     -3.51403271	     89.89452833	     -5.76601352	     11.94235871	     42.60110040	     86.42917257	      0.00000000	      0.00000000	     89.92968959	    -20.81556800	     37.61355149	     43.52543258	     65.05162314	      0.00000000	      0.00000000
      0.06666667	    -27.29924103	     -2.86440026	      8.28795566	     -0.30243201	      1.19553444	      0.03818134	     49.71688773	    -10.60814364	    -16.31869528	     28.03701017	      0.48933814	    -24.49648503	    -12.65810848	      0.00000000	     94.84005515	      2.60961947	      8.23049706	    106.81706183	      1.86430943	     12.53052652	    -13.23054560	      0.00000000	    -51.03293021	     13.30171111	     -3.68483948	     89.89239375	     -5.77177269	     11.93832370	     42.61029730	     86.41905943	      0.00000000	      0.00000000	     89.93036172	    -20.93490950	     37.81148530	     43.67957262	     64.98692731	      0.00000000	      0.00000000
      0.07500000	    -27.71114255	     -2.62536356	      8.36634964	     -0.30295439	      1.19559191	      0.03768012	     49.77953630	    -10.88830069	    -16.11950598	     28.97214247	      0.50565928	    -24.09618316	    -12.93729455	      0.00000000	     95.71812004	      2.67081261	      7.70568230	    105.81440141	      1.84680970	     13.68035081	    -12.26177170	      0.00000000	    -50.62945779	     13.15912543	     -4.04603359	     89.89245957	     -5.73358602	     11.99280438	     42.54134296	     86.38091703	      0.00000000	      0.00000000	     89.93117298	    -21.10177327	     38.01860651	     43.86463705	     64.71697215	      0.00000000	      0.00000000
      0.08333333	    -27.88109119	     -2.74173595	      8.42783498	     -0.30317022	      1.19591450	      0.03725117	     49.67976243	    -10.86849007	    -16.05991500	     30.11061969	      0.52552945	    -23.69114478	    -13.25073560	      0.00000000	     96.26780114	      2.71476046	      7.55841342	    104.59302182	      1.82549261	     14.47700821	    -12.19491609	      0.00000000	    -50.51727994	     13.28501848	     -3.99205744	     89.89365906	     -5.79359211	     11.94679247	     42.69700108	     86.39968940	      0.00000000	      0.00000000	     89.93132877	    -21.09904870	     37.95626975	     43.98680323	     64.65241288	      0.00000000	      0.00000000
      0.09166667	    -28.38399887	     -2.58929779	      8.68395889	     -0.30396355	      1.19594156	      0.03650667	     50.15235821	    -11.25893664	    -15.60651552	     31.58144232	      0.55120015	    -23.16659914	    -13.78384022	      0.00000000	     96.97373374	      2.93256245	      7.03497876	    102.96666790	      1.79710737	     14.86035829	    -11.34343669	      0.00000000	    -49.99575416	     13.35542083	     -4.38525551	     89.89472528	     -5.77738590	     12.06409755	     42.66146730	     86.41296657	      0.00000000	      0.00000000	     89.93215462	    -21.18047324	     38.03519487	     43.97262213	     64.50960182	      0.00000000	      0.00000000
      0.10000000	    -28.73340181	     -2.51438427	      8.82519170	     -0.30459993	      1.19622480	      0.03594043	     50.64788021	    -11.51966856	    -15.11624642	     33.34163314	      0.58192128	    -22.69608541	    -14.68768156	      0.00000000	     97.35805133	      3.07491019	      6.67684691	    101.11674761	      1.76482017	     14.87582192	    -10.86310678	      0.00000000	    -49.67981348	     13.41624799	     -4.60121880	     89.89631955	     -5.77188385	     12.10266053	     42.80735906	     86.42217991	      0.00000000	      0.00000000	     89.93248682	    -21.24509492	     37.98480765	     43.99521365	     64.37508587	      0.00000000	      0.00000000
      0.10833333	    -29.05153709	     -2.55861016	      8.97008983	     -0.30527060	      1.19650239	      0.03548624	     51.27424077	    -11.68949240	    -14.60163355	     35.32594713	      0.61655409	    -22.28176339	    -15.53895908	      0.00000000	     97.60264088	      3.16535199	      6.39662228	     99.08258714	      1.72931738	     14.57471816	    -10.49469162	      0.00000000	    -49.40240488	     13.56662139	     -4.67048745	     89.89850812	     -5.81558422	     12.11911189	     42.93938297	     86.39701380	      0.00000000	      0.00000000	     89.93287138	    -21.20495931	     37.85423776	     44.00639904	     64.27409480	      0.00000000	      0.00000000
      0.11666667	    -29.34835854	     -2.55415264	      9.07018912	     -0.30597766	      1.19679358	      0.03505578	     52.10502775	    -11.89935571	    -13.96713754	     37.61568957	      0.65651763	    -22.04987853	    -16.46222681	      0.00000000	     97.65020579	      3.24754968	      6.13017605	     96.84740350	      1.69030606	     14.05307482	     -9.84682519	      0.00000000	    -49.14980811	     13.66300163	     -4.76645383	     89.90082700	     -5.83307038	     12.12955023	     43.11956729	     86.39869793	      0.00000000	      0.00000000	     89.93316190	    -21.19026021	     37.70866615	     43.99313958	     64.21058872	      0.00000000	      0.00000000
      0.12500000	    -29.61800111	     -2.52716616	      9.10961453	     -0.30671896	      1.19703709	      0.03463365	     53.11294171	    -12.09443549	    -13.18946441	     40.19255245	      0.70149238	    -21.89964863	    -17.38128088	      0.00000000	     97.48191224	      3.29574354	      5.91756919	     94.48790288	      1.64912501	     13.14020457	     -9.50479878	      0.00000000	    -48.92632915	     13.72054774	     -4.82967158	     89.90389882	     -5.85115867	     12.09519110	     43.31178744	     86.39310949	      0.00000000	      0.00000000	     89.93318699	    -21.17239068	     37.55310943	     43.99081931	     64.19689263	      0.00000000	      0.00000000
